<?xml version="1.0" encoding="utf-8"?>
<!-- Generator: Adobe Illustrator 24.0.0, SVG Export Plug-In . SVG Version: 6.00 Build 0)  -->
<svg version="1.1" id="Layer_1" xmlns="http://www.w3.org/2000/svg" xmlns:xlink="http://www.w3.org/1999/xlink" x="0px" y="0px"
	 viewBox="0 0 950.7 234.2" style="enable-background:new 0 0 950.7 234.2;" xml:space="preserve">
<style type="text/css">
	.st0{fill:#FFFFFF;}
	.st1{fill:#993399;}
	.st2{font-family:'Swiss721BT-Black';}
	.st3{font-size:96px;}
</style>
<title>Combinationmark White Background</title>
<g id="Layer_2_1_">
	<g id="Layer_1-2">
		<path class="st0" d="M245.7,234.2c-1.4,0-2.8-0.5-3.7-1.6c-1-1-1.6-2.3-1.5-3.7c0-1.4,0.5-2.8,1.5-3.8c1-1,2.3-1.6,3.7-1.6
			c1.4,0,2.8,0.5,3.8,1.6c1,1,1.6,2.4,1.6,3.8C251.1,231.8,248.6,234.2,245.7,234.2L245.7,234.2z"/>
		<path class="st0" d="M319.7,232.6h-9.7l-35.2-53.7c-0.9-1.3-1.6-2.8-2.2-4.3h-0.3c0.3,3.1,0.5,6.2,0.4,9.3v48.7h-8v-68h10.4
			l34.1,53.4c1.4,2.2,2.4,3.7,2.8,4.6h0.2c-0.4-3.3-0.5-6.7-0.5-10v-48h8V232.6z"/>
		<path class="st0" d="M373.7,232.6h-36v-68h35v7h-27v23h25v7h-25v24h28V232.6z"/>
		<path class="st0" d="M427.7,171.6h-20v62h-8v-62h-19v-7h47V171.6z"/>
		<path d="M311.8,8.6h-47.1V62l31,28.4V38.6h17.4c10.5,0,15.6,5.2,15.6,13.3V91c0,8.1-4.9,13.6-15.6,13.6h-47.4v29h46.1
			c24.7,0.1,47.9-12.3,47.9-41.1V50.4C359.7,21.3,336.5,8.6,311.8,8.6z M553.7,92.8V50.3c0-15.3,27.3-18.9,35.5-3.5l25.2-10.3
			c-9.8-21.9-28-28.4-43-28.4c-24.5,0-48.8,14.3-48.8,42.2v42.4c0,28,24.3,42.2,48.2,42.2c15.4,0,33.9-7.7,44.1-27.7l-27-12.5
			C581.4,111.8,553.7,107.7,553.7,92.8L553.7,92.8z M469.8,55.9c-9.6-2.1-16-5.6-16.5-11.6c0.6-14.5,22.7-14.9,35.7-1.1l20.5-15.9
			c-12.8-15.8-27.3-19.9-42.4-19.9c-22.7,0-44.8,12.8-44.8,37.4c0,23.8,18.1,36.5,38.1,39.6c10.2,1.4,21.5,5.4,21.2,12.6
			c-0.8,13.4-28.2,12.7-40.6-2.5l-19.7,18.7c11.6,14.9,27.3,22.6,42.1,22.6c22.7,0,48-13.3,49-37.4C513.9,67.7,491.9,60,469.8,55.9
			L469.8,55.9z M376.7,133.6h31V8.6h-31V133.6z M903,8.6h-46.3V62l31,28.4V38.6h16.4c10.5,0,15.6,5.2,15.6,13.3V91
			c0,8.1-4.9,13.6-15.6,13.6h-47.4v29h46.1c24.7,0.1,47.9-12.3,47.9-41.1V50.4C950.9,21.3,927.7,8.6,903,8.6z M676.1,7.2
			c-25.8,0-51.4,14.1-51.4,43V93c0,28.7,25.8,43,51.6,43s51.4-14.3,51.4-43V50.1C727.7,21.5,701.8,7.2,676.1,7.2z M695.7,92.9
			c0,8.9-10,13.5-19.9,13.5s-20.1-4.5-20.1-13.5V50.2c0-9.2,9.8-14.1,19.5-14.1c10.2,0,20.5,4.5,20.5,14.1V92.9z M839.3,50.4
			C838.7,21.2,819,9.6,793.6,9.6h-49.9v125h32v-41h5.6l29,40h38.4L815.2,91C830.2,86.3,839.3,73.4,839.3,50.4z M793.8,66.6h-18.1
			v-28h18.1C813.3,38.6,813.3,66.6,793.8,66.6z"/>
		<path class="st0" d="M42.3,0.1l143.9,13.6c12.2,1.2,21.1,12,19.9,24.2l-13.7,145.2c-1.1,12.2-11.9,21.1-24.1,20L46.5,191.6
			l7.6-19.3l-15,11.5L25,194.6L0,212.8L18.2,20.1C19.3,8,30.1-1,42.3,0.1C42.3,0.1,42.3,0.1,42.3,0.1z"/>
		<path class="st1" d="M41.4,31.9l0.3-3c0.3-2.7,2.7-4.7,5.4-4.4l96.7,10.2c2.7,0.3,4.7,2.7,4.4,5.4l-0.3,3
			c-0.3,2.7-2.7,4.7-5.4,4.4L45.8,37.3C43.1,37,41.1,34.6,41.4,31.9z"/>
		<path class="st1" d="M75.1,65.6l0.3-3c0.3-2.7,2.7-4.7,5.4-4.4l96.7,10.2c2.7,0.3,4.7,2.7,4.4,5.4l-0.3,3
			c-0.3,2.7-2.7,4.7-5.4,4.4L79.4,71C76.8,70.7,74.8,68.3,75.1,65.6z"/>
		<path class="st1" d="M31.3,127l0.3-3c0.3-2.7,2.7-4.7,5.4-4.4l96.7,10.2c2.7,0.3,4.7,2.7,4.4,5.4l-0.3,3c-0.3,2.7-2.7,4.7-5.4,4.4
			l-96.7-10.2C33,132.1,31,129.7,31.3,127z"/>
		<path class="st1" d="M71.8,96.3l0.3-3c0.3-2.7,2.7-4.7,5.4-4.4l96.7,10.2c2.7,0.3,4.7,2.7,4.4,5.4l-0.3,3
			c-0.3,2.7-2.7,4.7-5.4,4.4l-96.7-10.2C73.5,101.4,71.5,99,71.8,96.3z"/>
	</g>
</g>
<text transform="matrix(1 0 0 1 443.73 234.2018)" class="st2 st3">LABS</text>
</svg>
