<?xml version="1.0" encoding="utf-8"?>
<!-- Generator: Adobe Illustrator 24.0.0, SVG Export Plug-In . SVG Version: 6.00 Build 0)  -->
<svg version="1.1" id="Layer_1" xmlns="http://www.w3.org/2000/svg" xmlns:xlink="http://www.w3.org/1999/xlink" x="0px" y="0px"
	 viewBox="0 0 265.7 274.2" style="enable-background:new 0 0 265.7 274.2;" xml:space="preserve">
<style type="text/css">
	.st0{fill:#68217A;}
	.st1{fill:#993399;}
	.st2{font-family:'Swiss721BT-Black';}
	.st3{font-size:40px;}
</style>
<title>Logomark Full Purple</title>
<g id="Layer_2_1_">
	<g id="Layer_1-2">
		<path class="st0" d="M54.5,0.1l185.4,17.5c15.7,1.5,27.2,15.5,25.7,31.2L248,235.9c-1.4,15.7-15.3,27.3-31.1,25.8L60,246.9
			l9.7-24.9l-19.3,14.8l-18.2,13.9L0,274.2L23.4,26C24.8,10.3,38.7-1.3,54.5,0.1C54.4,0.1,54.5,0.1,54.5,0.1z"/>
		<path class="st1" d="M53.3,56l0.4-3.9c0.4-3.5,3.5-6,6.9-5.6l124.7,13.2c3.5,0.4,6,3.5,5.6,6.9l-0.4,3.9c-0.4,3.5-3.5,6-6.9,5.6
			L59,62.9C55.5,62.5,53,59.4,53.3,56z"/>
		<path class="st1" d="M96.8,99.4l0.4-3.9c0.4-3.5,3.5-6,6.9-5.6L228.8,103c3.5,0.4,6,3.5,5.6,6.9l-0.4,3.9c-0.4,3.5-3.5,6-6.9,5.6
			l-124.7-13.2C98.9,106,96.4,102.8,96.8,99.4z"/>
		<path class="st1" d="M40.4,178.5l0.4-3.9c0.4-3.5,3.5-6,6.9-5.6l124.7,13.2c3.5,0.4,6,3.5,5.6,6.9l-0.4,3.9
			c-0.4,3.5-3.5,6-6.9,5.6L46,185.4C42.5,185.1,40,182,40.4,178.5z"/>
		<path class="st1" d="M92.6,138.9L93,135c0.4-3.5,3.5-6,6.9-5.6l124.7,13.2c3.5,0.4,6,3.5,5.6,6.9l-0.4,3.9c-0.4,3.5-3.5,6-6.9,5.6
			L98.2,145.9C94.7,145.5,92.2,142.4,92.6,138.9z"/>
		<path d="M140,53.9H89v58.8l34,31.3V86.9h17.9c11.4,0,17.1,5.7,17.1,14.5v42.7c0,8.9-5.4,14.8-17.1,14.8H89v32h51
			c27.3,0.2,53-13.5,53-45.1V99.7C193,67.8,167.4,53.9,140,53.9z"/>
	</g>
</g>
<text transform="matrix(0.8966 0 0 1 89.0002 232.4536)" class="st2 st3">LABS</text>
</svg>
