<?xml version="1.0" encoding="UTF-8"?>
<!DOCTYPE svg PUBLIC "-//W3C//DTD SVG 1.1//EN" "http://www.w3.org/Graphics/SVG/1.1/DTD/svg11.dtd">
<svg xmlns="http://www.w3.org/2000/svg" version="1.1" width="128px" height="128px" style="shape-rendering:geometricPrecision; text-rendering:geometricPrecision; image-rendering:optimizeQuality; fill-rule:evenodd; clip-rule:evenodd" xmlns:xlink="http://www.w3.org/1999/xlink">
<g><path style="opacity:0.981" fill="#68217a" d="M 18.5,-0.5 C 24.5,-0.5 30.5,-0.5 36.5,-0.5C 63.6631,2.53187 90.9964,5.3652 118.5,8C 122.685,9.68784 125.685,12.5212 127.5,16.5C 127.5,22.1667 127.5,27.8333 127.5,33.5C 124.417,60.9908 121.584,88.6574 119,116.5C 116.565,122.932 111.899,126.265 105,126.5C 79.5204,123.835 54.0204,121.335 28.5,119C 28.1667,118.667 27.8333,118.333 27.5,118C 29.3648,115.412 30.1981,112.578 30,109.5C 22.1881,115.641 14.3548,121.641 6.5,127.5C 4.16667,127.5 1.83333,127.5 -0.5,127.5C -0.5,125.167 -0.5,122.833 -0.5,120.5C 3.31796,85.3491 6.81796,50.0158 10,14.5C 10.2723,7.94592 13.1056,2.94592 18.5,-0.5 Z"/></g>
<g><path style="opacity:1" fill="#983d9a" d="M 68.5,25.5 C 59.8333,25.5 51.1667,25.5 42.5,25.5C 42.5,34.8333 42.5,44.1667 42.5,53.5C 41.5084,46.3524 41.175,39.0191 41.5,31.5C 36.4496,31.1243 31.4496,30.4576 26.5,29.5C 24.2313,27.1187 24.2313,24.6187 26.5,22C 40.6044,23.3314 54.6044,24.4981 68.5,25.5 Z"/></g>
<g><path style="opacity:1" fill="#fdfcfd" d="M 68.5,25.5 C 72.6163,25.5407 76.6163,26.2073 80.5,27.5C 84.4558,29.7881 87.7891,32.7881 90.5,36.5C 91.9193,40.0148 92.586,43.6814 92.5,47.5C 92.5,50.1667 92.5,52.8333 92.5,55.5C 92.5,59.1667 92.5,62.8333 92.5,66.5C 92.5,69.5 92.5,72.5 92.5,75.5C 91.0681,80.017 88.4015,83.6837 84.5,86.5C 81.5243,88.6642 78.1909,90.1642 74.5,91C 66.1733,91.4997 57.84,91.6664 49.5,91.5C 47.1667,91.5 44.8333,91.5 42.5,91.5C 42.5,86.5 42.5,81.5 42.5,76.5C 51.9913,75.67 61.658,75.17 71.5,75C 72.4158,74.7216 73.0825,74.2216 73.5,73.5C 75.2655,70.8774 75.9321,67.8774 75.5,64.5C 75.5,60.8333 75.5,57.1667 75.5,53.5C 75.6641,50.8127 75.4974,48.146 75,45.5C 73.992,43.741 72.492,42.5743 70.5,42C 66.8484,41.5014 63.1817,41.3347 59.5,41.5C 58.6703,50.324 58.1703,59.324 58,68.5C 55.5644,65.5532 52.7311,63.2199 49.5,61.5C 47.1667,58.8333 44.8333,56.1667 42.5,53.5C 42.5,44.1667 42.5,34.8333 42.5,25.5C 51.1667,25.5 59.8333,25.5 68.5,25.5 Z"/></g>
<g><path style="opacity:1" fill="#99399a" d="M 80.5,27.5 C 89.1837,25.1927 92.517,28.1927 90.5,36.5C 87.7891,32.7881 84.4558,29.7881 80.5,27.5 Z"/></g>
<g><path style="opacity:1" fill="#8f3093" d="M 59.5,41.5 C 63.1817,41.3347 66.8484,41.5014 70.5,42C 72.492,42.5743 73.992,43.741 75,45.5C 75.4974,48.146 75.6641,50.8127 75.5,53.5C 70.1779,53.0199 64.8446,52.6865 59.5,52.5C 59.5,48.8333 59.5,45.1667 59.5,41.5 Z"/></g>
<g><path style="opacity:1" fill="#973297" d="M 92.5,47.5 C 98.4932,47.9994 104.493,48.4994 110.5,49C 112.396,50.8083 112.896,52.975 112,55.5C 111.044,56.8941 109.711,57.5607 108,57.5C 102.839,56.723 97.6728,56.0564 92.5,55.5C 92.5,52.8333 92.5,50.1667 92.5,47.5 Z"/></g>
<g><path style="opacity:1" fill="#68217a" d="M 59.5,52.5 C 64.8446,52.6865 70.1779,53.0199 75.5,53.5C 75.5,57.1667 75.5,60.8333 75.5,64.5C 70.1951,63.8058 64.8617,63.4724 59.5,63.5C 59.5,59.8333 59.5,56.1667 59.5,52.5 Z"/></g>
<g><path style="opacity:1" fill="#983999" d="M 59.5,41.5 C 59.5,45.1667 59.5,48.8333 59.5,52.5C 59.5,56.1667 59.5,59.8333 59.5,63.5C 64.8617,63.4724 70.1951,63.8058 75.5,64.5C 75.9321,67.8774 75.2655,70.8774 73.5,73.5C 64.705,71.872 55.705,70.7053 46.5,70C 44.5426,67.8788 44.0426,65.3788 45,62.5C 46.3561,61.6198 47.8561,61.2865 49.5,61.5C 52.7311,63.2199 55.5644,65.5532 58,68.5C 58.1703,59.324 58.6703,50.324 59.5,41.5 Z"/></g>
<g><path style="opacity:1" fill="#963297" d="M 92.5,66.5 C 97.8326,66.9332 103.166,67.4332 108.5,68C 110.396,69.8083 110.896,71.975 110,74.5C 109.044,75.8941 107.711,76.5607 106,76.5C 101.539,75.6551 97.0395,75.3218 92.5,75.5C 92.5,72.5 92.5,69.5 92.5,66.5 Z"/></g>
<g><path style="opacity:1" fill="#973598" d="M 42.5,76.5 C 42.5,81.5 42.5,86.5 42.5,91.5C 35.2433,90.4603 27.9099,89.627 20.5,89C 18.6041,87.1917 18.1041,85.025 19,82.5C 19.956,81.1059 21.2894,80.4393 23,80.5C 29.1457,81.3979 35.3124,82.0645 41.5,82.5C 41.2053,80.2646 41.5386,78.2646 42.5,76.5 Z"/></g>
<g><path style="opacity:1" fill="#963497" d="M 84.5,86.5 C 85.7143,89.204 85.7143,91.8707 84.5,94.5C 83.8333,94.8333 83.1667,95.1667 82.5,95.5C 71.3099,94.5914 60.3099,93.2581 49.5,91.5C 57.84,91.6664 66.1733,91.4997 74.5,91C 78.1909,90.1642 81.5243,88.6642 84.5,86.5 Z"/></g>
<g><path style="opacity:1" fill="#f5f1f6" d="M 42.5,94.5 C 43.8333,94.5 45.1667,94.5 46.5,94.5C 46.5,98.5 46.5,102.5 46.5,106.5C 48.8568,106.663 51.1902,106.497 53.5,106C 54.9267,102.556 56.26,99.0558 57.5,95.5C 59.0064,94.2528 60.5064,94.2528 62,95.5C 63.8102,100.429 65.3102,105.429 66.5,110.5C 63.6437,109.172 60.6437,108.172 57.5,107.5C 57.5,108.5 57.5,109.5 57.5,110.5C 52.5,110.5 47.5,110.5 42.5,110.5C 42.5,105.167 42.5,99.8333 42.5,94.5 Z"/></g>
<g><path style="opacity:1" fill="#efeaf0" d="M 84.5,94.5 C 87.1569,94.162 89.4902,94.8287 91.5,96.5C 89.9412,98.1307 87.9412,98.964 85.5,99C 88.022,99.9567 90.1886,101.457 92,103.5C 92.1708,109.313 89.3375,111.48 83.5,110C 80.9211,108.388 80.9211,106.888 83.5,105.5C 85.0983,106.485 86.765,106.651 88.5,106C 82.7395,104.449 80.7395,100.949 82.5,95.5C 83.1667,95.1667 83.8333,94.8333 84.5,94.5 Z"/></g>
<g><path style="opacity:1" fill="#f5f2f6" d="M 67.5,95.5 C 70.909,95.2493 74.2423,95.5827 77.5,96.5C 78.3976,99.6158 79.0643,102.782 79.5,106C 79.5607,107.711 78.8941,109.044 77.5,110C 74.1832,110.498 70.8499,110.665 67.5,110.5C 67.5,105.5 67.5,100.5 67.5,95.5 Z"/></g>
<g><path style="opacity:1" fill="#713381" d="M 72.5,97.5 C 75.8606,98.2032 76.1939,99.5365 73.5,101.5C 72.5713,100.311 72.238,98.9778 72.5,97.5 Z"/></g>
<g><path style="opacity:1" fill="#a98ab2" d="M 59.5,99.5 C 60.7879,101.035 60.7879,102.701 59.5,104.5C 58.3336,102.833 58.3336,101.166 59.5,99.5 Z"/></g>
<g><path style="opacity:1" fill="#783d87" d="M 72.5,104.5 C 73.5,104.5 74.5,104.5 75.5,104.5C 75.5,105.5 75.5,106.5 75.5,107.5C 74.5,107.5 73.5,107.5 72.5,107.5C 72.5,106.5 72.5,105.5 72.5,104.5 Z"/></g>
</svg>
